<?xml version="1.0" encoding="utf-8"?>
<!-- Generator: Adobe Illustrator 27.3.0, SVG Export Plug-In . SVG Version: 6.00 Build 0)  -->
<svg version="1.1" id="Camada_1" xmlns="http://www.w3.org/2000/svg" xmlns:xlink="http://www.w3.org/1999/xlink" x="0px" y="0px"
	 viewBox="0 0 221.66 54.59" style="enable-background:new 0 0 221.66 54.59;" xml:space="preserve">
<style type="text/css">
	.st0{fill-rule:evenodd;clip-rule:evenodd;}
</style>
<g>
	<g>
		<g>
			<rect x="48.04" y="33.38" width="169.66" height="0.76"/>
		</g>
		<g>
			<g>
				<path d="M48.04,28.83V13.07h12.91v3.78h-7.72v2.1h6.53v3.61h-6.53V25h8.04v3.83H48.04z"/>
			</g>
			<g>
				<path d="M63.69,28.83V13.07h4.92l4.53,7.33c0.14,0.21,0.29,0.5,0.44,0.88c0.16,0.38,0.33,0.83,0.5,1.37
					c-0.05-0.28-0.08-0.58-0.1-0.92c-0.02-0.33-0.03-0.74-0.03-1.22v-7.43h4.95v15.76h-4.95l-4.53-7.27
					c-0.14-0.21-0.29-0.52-0.45-0.91c-0.16-0.39-0.33-0.84-0.5-1.35c0.05,0.28,0.09,0.57,0.11,0.87c0.02,0.3,0.03,0.73,0.03,1.28
					v7.38H63.69z"/>
			</g>
			<g>
				<path d="M93.99,28.83l-0.25-1.36c-0.59,0.61-1.29,1.06-2.12,1.35c-0.83,0.3-1.79,0.45-2.88,0.45c-2.31,0-4.13-0.74-5.46-2.22
					c-1.33-1.48-2-3.51-2-6.08c0-2.63,0.74-4.67,2.23-6.12c1.48-1.45,3.56-2.18,6.24-2.18c2.11,0,3.8,0.51,5.09,1.53
					c1.29,1.02,2.06,2.46,2.3,4.31h-4.92c-0.2-0.63-0.52-1.1-0.96-1.43c-0.44-0.33-0.99-0.49-1.64-0.49c-1.04,0-1.82,0.39-2.33,1.17
					c-0.52,0.78-0.77,1.94-0.77,3.48c0,1.43,0.26,2.49,0.78,3.2c0.52,0.71,1.31,1.06,2.37,1.06c0.76,0,1.41-0.17,1.94-0.52
					c0.53-0.35,0.86-0.81,0.98-1.4h-2.34v-3.37h7.09v8.63H93.99z"/>
			</g>
			<g>
				<path d="M100.36,28.83V13.07h5.29v15.76H100.36z"/>
			</g>
			<g>
				<path d="M108.81,28.83V13.07h4.92l4.53,7.33c0.14,0.21,0.29,0.5,0.44,0.88c0.16,0.38,0.33,0.83,0.5,1.37
					c-0.04-0.28-0.08-0.58-0.1-0.92c-0.02-0.33-0.03-0.74-0.03-1.22v-7.43h4.94v15.76h-4.94l-4.53-7.27
					c-0.14-0.21-0.29-0.52-0.46-0.91c-0.16-0.39-0.33-0.84-0.5-1.35c0.05,0.28,0.09,0.57,0.11,0.87c0.02,0.3,0.03,0.73,0.03,1.28
					v7.38H108.81z"/>
			</g>
			<g>
				<path d="M127.09,28.83V13.07H140v3.78h-7.72v2.1h6.53v3.61h-6.53V25h8.04v3.83H127.09z"/>
			</g>
			<g>
				<path d="M142.74,28.83V13.07h12.91v3.78h-7.72v2.1h6.53v3.61h-6.53V25h8.04v3.83H142.74z"/>
			</g>
			<g>
				<path d="M158.39,28.83V13.07h7.73c2.42,0,4.15,0.35,5.18,1.06c1.03,0.71,1.55,1.86,1.55,3.48c0,0.96-0.21,1.76-0.63,2.4
					c-0.42,0.63-1.08,1.14-1.96,1.51c0.9,0.19,1.55,0.55,1.96,1.1c0.41,0.55,0.63,1.35,0.66,2.4l0.09,2.19c0,0.01,0,0.03,0.01,0.05
					c0.02,0.63,0.18,0.96,0.46,0.98v0.59h-5.23c-0.09-0.38-0.16-0.71-0.21-0.99c-0.05-0.28-0.07-0.5-0.07-0.66v-1.57
					c0-0.81-0.16-1.39-0.49-1.72c-0.33-0.33-0.9-0.5-1.71-0.5h-2.21v5.43H158.39z M163.51,19.84h2.36c0.83,0,1.4-0.11,1.71-0.33
					c0.31-0.22,0.47-0.6,0.47-1.14c0-0.56-0.16-0.94-0.47-1.16c-0.31-0.22-0.93-0.32-1.84-0.32h-2.23V19.84z"/>
			</g>
			<g>
				<path d="M175.62,28.83V13.07h5.28v15.76H175.62z"/>
			</g>
			<g>
				<path d="M184.06,28.83V13.07h4.92l4.53,7.33c0.14,0.21,0.29,0.5,0.44,0.88c0.16,0.38,0.32,0.83,0.5,1.37
					c-0.04-0.28-0.07-0.58-0.1-0.92c-0.02-0.33-0.03-0.74-0.03-1.22v-7.43h4.94v15.76h-4.94l-4.53-7.27
					c-0.14-0.21-0.29-0.52-0.46-0.91c-0.16-0.39-0.33-0.84-0.5-1.35c0.05,0.28,0.09,0.57,0.11,0.87c0.02,0.3,0.03,0.73,0.03,1.28
					v7.38H184.06z"/>
			</g>
			<g>
				<path d="M214.36,28.83l-0.25-1.36c-0.59,0.61-1.29,1.06-2.12,1.35c-0.82,0.3-1.79,0.45-2.88,0.45c-2.31,0-4.13-0.74-5.46-2.22
					c-1.33-1.48-2-3.51-2-6.08c0-2.63,0.74-4.67,2.23-6.12c1.48-1.45,3.56-2.18,6.24-2.18c2.1,0,3.8,0.51,5.09,1.53
					c1.29,1.02,2.06,2.46,2.3,4.31h-4.92c-0.2-0.63-0.52-1.1-0.96-1.43c-0.44-0.33-0.99-0.49-1.64-0.49c-1.04,0-1.81,0.39-2.33,1.17
					c-0.52,0.78-0.77,1.94-0.77,3.48c0,1.43,0.26,2.49,0.78,3.2c0.52,0.71,1.31,1.06,2.37,1.06c0.76,0,1.41-0.17,1.94-0.52
					c0.53-0.35,0.86-0.81,0.98-1.4h-2.33v-3.37h7.09v8.63H214.36z"/>
			</g>
		</g>
		<g>
			<path d="M49.78,43.24v-4.14h-1.49v-0.96h4.07v0.96h-1.48v4.14H49.78z"/>
			<path d="M56.97,43.24V41.1h-2.41v2.14h-1.09v-5.1h1.09v2h2.41v-2h1.09v5.1H56.97z"/>
			<path d="M59.49,43.24v-5.1h3.61v0.93h-2.52v1.11h2.47v0.93h-2.47v1.19h2.52v0.94H59.49z"/>
			<path d="M66.76,43.24v-5.1h2.01c1.6,0,2.71,1.02,2.71,2.55c0,1.54-1.11,2.55-2.71,2.55H66.76z M67.85,42.28h0.93
				c1.01,0,1.6-0.73,1.6-1.59c0-0.9-0.55-1.6-1.6-1.6h-0.93V42.28z"/>
			<path d="M72.68,43.24v-5.1h1.09v5.1H72.68z"/>
			<path d="M77.67,38.05c1.06,0,1.72,0.51,2.11,1.12l-0.9,0.49c-0.24-0.36-0.67-0.64-1.21-0.64c-0.93,0-1.6,0.71-1.6,1.67
				s0.67,1.67,1.6,1.67c0.47,0,0.88-0.19,1.1-0.39v-0.62h-1.36v-0.93h2.43v1.95c-0.52,0.58-1.25,0.96-2.17,0.96
				c-1.49,0-2.71-1.04-2.71-2.65C74.96,39.08,76.18,38.05,77.67,38.05z"/>
			<path d="M81.13,43.24v-5.1h1.09v5.1H81.13z"/>
			<path d="M84.83,43.24v-4.14h-1.49v-0.96h4.07v0.96h-1.48v4.14H84.83z"/>
			<path d="M91.61,43.24l-0.32-0.88h-2.28l-0.32,0.88H87.5l1.97-5.1h1.36l1.96,5.1H91.61z M90.15,39.08l-0.85,2.34H91L90.15,39.08z"
				/>
			<path d="M93.7,43.24v-5.1h1.09v4.14h2.16v0.96H93.7z"/>
			<path d="M101.69,43.24v-4.14h-1.49v-0.96h4.07v0.96h-1.48v4.14H101.69z"/>
			<path d="M108.27,43.24l-1-1.83h-0.8v1.83h-1.09v-5.1h2.39c1.06,0,1.71,0.7,1.71,1.64c0,0.9-0.57,1.38-1.12,1.51l1.15,1.94H108.27
				z M107.61,39.07h-1.14v1.41h1.14c0.44,0,0.76-0.28,0.76-0.7C108.38,39.35,108.05,39.07,107.61,39.07z"/>
			<path d="M114.3,43.24l-0.32-0.88h-2.28l-0.32,0.88h-1.19l1.97-5.1h1.36l1.96,5.1H114.3z M112.84,39.08l-0.85,2.34h1.69
				L112.84,39.08z"/>
			<path d="M119.91,43.24l-2.43-3.43v3.43h-1.09v-5.1h1.12l2.36,3.3v-3.3h1.09v5.1H119.91z"/>
			<path d="M122.64,41.69c0.36,0.37,0.92,0.69,1.62,0.69c0.6,0,0.89-0.28,0.89-0.57c0-0.38-0.44-0.51-1.03-0.65
				c-0.83-0.19-1.9-0.42-1.9-1.56c0-0.85,0.73-1.54,1.93-1.54c0.81,0,1.48,0.24,1.99,0.71l-0.6,0.8c-0.41-0.38-0.96-0.56-1.46-0.56
				c-0.49,0-0.75,0.21-0.75,0.52c0,0.34,0.43,0.45,1.02,0.59c0.84,0.19,1.91,0.44,1.91,1.57c0,0.93-0.67,1.64-2.04,1.64
				c-0.98,0-1.68-0.33-2.16-0.81L122.64,41.69z"/>
			<path d="M127.41,43.24v-5.1h3.61v0.93h-2.52v1.11h2.47v0.93h-2.47v2.13H127.41z"/>
			<path d="M134.62,38.05c1.54,0,2.67,1.1,2.67,2.64c0,1.54-1.12,2.64-2.67,2.64c-1.54,0-2.66-1.1-2.66-2.64
				C131.96,39.15,133.08,38.05,134.62,38.05z M134.62,39.02c-0.94,0-1.54,0.72-1.54,1.67c0,0.95,0.6,1.67,1.54,1.67
				s1.55-0.73,1.55-1.67C136.17,39.73,135.56,39.02,134.62,39.02z"/>
			<path d="M141.36,43.24l-1-1.83h-0.8v1.83h-1.09v-5.1h2.39c1.06,0,1.71,0.7,1.71,1.64c0,0.9-0.57,1.38-1.12,1.51l1.15,1.94H141.36
				z M140.7,39.07h-1.14v1.41h1.14c0.44,0,0.76-0.28,0.76-0.7C141.47,39.35,141.14,39.07,140.7,39.07z"/>
			<path d="M148.25,43.24v-3.67l-1.44,3.67h-0.47l-1.44-3.67v3.67h-1.09v-5.1h1.52l1.24,3.18l1.24-3.18h1.53v5.1H148.25z"/>
			<path d="M154.35,43.24l-0.32-0.88h-2.28l-0.32,0.88h-1.19l1.97-5.1h1.36l1.96,5.1H154.35z M152.89,39.08l-0.85,2.34h1.69
				L152.89,39.08z"/>
			<path d="M157.13,43.24v-4.14h-1.49v-0.96h4.07v0.96h-1.48v4.14H157.13z"/>
			<path d="M160.83,43.24v-5.1h1.09v5.1H160.83z"/>
			<path d="M165.77,38.05c1.54,0,2.67,1.1,2.67,2.64c0,1.54-1.12,2.64-2.67,2.64c-1.54,0-2.66-1.1-2.66-2.64
				C163.11,39.15,164.23,38.05,165.77,38.05z M165.77,39.02c-0.94,0-1.54,0.72-1.54,1.67c0,0.95,0.6,1.67,1.54,1.67
				c0.94,0,1.55-0.73,1.55-1.67C167.32,39.73,166.71,39.02,165.77,39.02z"/>
			<path d="M173.15,43.24l-2.43-3.43v3.43h-1.09v-5.1h1.12l2.36,3.3v-3.3h1.09v5.1H173.15z"/>
			<path d="M177.77,40.69c0-1.57,1.19-2.64,2.68-2.64c1.16,0,1.81,0.61,2.17,1.25l-0.93,0.46c-0.21-0.41-0.67-0.74-1.24-0.74
				c-0.89,0-1.56,0.71-1.56,1.67s0.67,1.67,1.56,1.67c0.57,0,1.02-0.32,1.24-0.74l0.93,0.45c-0.37,0.63-1.01,1.25-2.17,1.25
				C178.95,43.33,177.77,42.26,177.77,40.69z"/>
			<path d="M186.11,38.05c1.54,0,2.67,1.1,2.67,2.64c0,1.54-1.12,2.64-2.67,2.64c-1.54,0-2.66-1.1-2.66-2.64
				C183.45,39.15,184.57,38.05,186.11,38.05z M186.11,39.02c-0.94,0-1.54,0.72-1.54,1.67c0,0.95,0.6,1.67,1.54,1.67
				s1.55-0.73,1.55-1.67C187.66,39.73,187.05,39.02,186.11,39.02z"/>
			<path d="M194.41,43.24v-3.67l-1.44,3.67h-0.47l-1.44-3.67v3.67h-1.09v-5.1h1.52l1.24,3.18l1.24-3.18h1.53v5.1H194.41z"/>
			<path d="M196.94,43.24v-5.1h2.39c1.11,0,1.71,0.75,1.71,1.64c0,0.89-0.61,1.63-1.71,1.63h-1.3v1.83H196.94z M199.18,39.07h-1.15
				v1.41h1.15c0.43,0,0.75-0.28,0.75-0.7C199.92,39.35,199.6,39.07,199.18,39.07z"/>
			<path d="M205.14,43.24l-0.32-0.88h-2.28l-0.32,0.88h-1.19l1.97-5.1h1.36l1.96,5.1H205.14z M203.68,39.08l-0.85,2.34h1.69
				L203.68,39.08z"/>
			<path d="M210.74,43.24l-2.43-3.43v3.43h-1.09v-5.1h1.12l2.36,3.3v-3.3h1.09v5.1H210.74z"/>
			<path d="M214.65,43.24v-2.09l-1.96-3.01h1.24l1.27,2.05l1.25-2.05h1.24l-1.95,3.01v2.09H214.65z"/>
		</g>
	</g>
	<g>
		<g>
			<path class="st0" d="M20.89,43.27h-8.1c-2.36,0-4.53-0.94-6.12-2.5h14.22V43.27L20.89,43.27z M5.61,39.51
				c-0.43-0.61-0.79-1.28-1.06-1.99h16.34v1.99H5.61L5.61,39.51z M4.18,36.27c-0.14-0.65-0.22-1.33-0.22-2.03h16.94v2.03H4.18
				L4.18,36.27z M4.04,32.98c0.19-1.5,0.74-3.06,1.7-4.64l10.63-13.93c2.31-2.47,4.15-3.05,6-3.16v10.42l-8.5,11.31H4.04L4.04,32.98
				z"/>
		</g>
		<g>
			<path class="st0" d="M25.82,43.27h8.1c2.36,0,4.53-0.94,6.12-2.5H25.82V43.27L25.82,43.27z M41.11,39.51
				c0.43-0.61,0.79-1.28,1.06-1.99H25.82v1.99H41.11L41.11,39.51z M42.54,36.27c0.14-0.65,0.22-1.33,0.22-2.03H25.82v2.03H42.54
				L42.54,36.27z M42.68,32.98c-0.19-1.5-0.74-3.06-1.7-4.64L30.35,14.41c-2.31-2.47-4.15-3.05-6-3.16v10.42l8.5,11.31H42.68
				L42.68,32.98z"/>
		</g>
	</g>
</g>
</svg>
